<svg width="44" height="44" viewBox="0 0 44 44" xmlns="http://www.w3.org/2000/svg" xmlns:xlink="http://www.w3.org/1999/xlink" overflow="hidden"><g id="ic_blog" transform="translate(-263 45)"><rect x="0" y="0" rx="22" width="44" height="44" id="사각형_3901" fill="#454F63" transform="translate(263 -45)"/><g id="그룹_5635" transform="translate(-104.918 -205.176)"><path d="M406.626 222.626C406.245 222.626 405.937 222.934 405.937 223.315 405.937 223.696 406.245 224.004 406.626 224.004 407.007 224.004 407.315 223.696 407.315 223.315 407.315 222.934 407.007 222.626 406.626 222.626Z" id="패스_2409" fill="#FFFFFF" transform="translate(-22.343 -41.605)"/><path d="M454.453 222.117C454.043 222.117 453.711 222.449 453.711 222.859 453.711 223.269 454.043 223.601 454.453 223.601 454.863 223.601 455.195 223.269 455.195 222.859 455.195 222.449 454.863 222.117 454.453 222.117Z" id="패스_2410" fill="#FFFFFF" transform="translate(-63.367 -41.168)"/><path d="M397.243 174.176 382.595 174.176C381.118 174.175 379.92 175.373 379.919 176.85 379.919 176.85 379.919 176.851 379.919 176.851L379.919 185.545C379.918 187.022 381.116 188.22 382.593 188.221 382.594 188.221 382.594 188.221 382.595 188.221L387.769 188.221 389.529 192.367C389.529 192.367 389.65 192.726 389.943 192.726L389.943 192.726C390.236 192.726 390.357 192.367 390.357 192.367L392.117 188.221 397.244 188.221C398.721 188.222 399.919 187.024 399.92 185.547 399.92 185.546 399.92 185.546 399.92 185.545L399.92 176.851C399.919 175.373 398.721 174.175 397.243 174.176ZM386.2 181.861C386.189 182.766 385.453 183.494 384.548 183.496 384.173 183.497 383.813 183.345 383.553 183.075L383.553 183.362 382.353 183.362 382.353 178.427C382.353 178.427 382.348 178.427 382.353 178.427L382.353 178.427C382.427 178.439 383.553 178.427 383.553 178.427L383.553 180.315C383.835 179.835 384.653 179.843 384.653 179.843 385.616 179.945 386.314 180.808 386.212 181.771 386.209 181.801 386.205 181.831 386.2 181.861ZM388.307 179.99 388.307 183.369 387.136 183.369 387.136 180.024C387.136 179.569 386.571 179.442 386.571 179.442L386.571 178.262C387.463 178.195 388.241 178.863 388.308 179.755 388.314 179.834 388.315 179.913 388.309 179.991ZM391.084 183.498C390.086 183.415 389.343 182.539 389.426 181.54 389.509 180.542 390.386 179.8 391.384 179.882 392.325 179.96 393.048 180.747 393.048 181.691 393.004 182.732 392.127 183.541 391.086 183.5ZM397.501 183.498C397.527 184.421 396.8 185.189 395.878 185.215 395.843 185.216 395.809 185.216 395.774 185.215L395.243 185.215 395.243 184.1 395.563 184.1C395.563 184.1 396.296 184.167 396.287 183.038 396.287 183.038 396.144 183.495 395.116 183.495 394.304 183.45 393.666 182.782 393.658 181.968L393.658 181.429C393.696 180.549 394.413 179.852 395.293 179.836 395.687 179.809 396.069 179.98 396.313 180.291L396.313 179.929 397.5 179.929Z" id="패스_2411" fill="#FFFFFF"/><path d="M486.8 222.237C486.4 222.237 486.075 222.562 486.075 222.962 486.075 223.362 486.4 223.687 486.8 223.687 487.2 223.687 487.525 223.362 487.525 222.962 487.525 222.562 487.2 222.237 486.8 222.237Z" id="패스_2412" fill="#FFFFFF" transform="translate(-91.155 -41.271)"/></g></g></svg>